<svg id="Capa_1" enable-background="new 0 0 512 512" height="512" viewBox="0 0 512 512" width="512" xmlns="http://www.w3.org/2000/svg"><g id="XMLID_137_"><path id="XMLID_153_" d="m152.082 240h206.745c9.78 0 17.707-7.928 17.707-17.708v-199.433c0-9.78-7.928-17.707-17.707-17.707h-206.745c-9.78 0-17.707 7.928-17.707 17.707v199.434c-.001 9.779 7.927 17.707 17.707 17.707zm38.6-56.689 41.759-133.815c1.196-3.654 3.929-6.471 8.195-8.445s9.166-2.962 14.706-2.962c5.536 0 10.44.988 14.706 2.962s6.995 4.791 8.195 8.445l41.984 133.815c1.297 4.962-1.986 9.509-6.848 12.286-4.866 2.78-9.917 4.168-15.155 4.168-6.437 0-10.254-2.118-11.45-6.361l-7.634-27.422h-47.372l-7.633 27.422c-1.2 4.243-5.016 6.361-11.45 6.361-5.241 0-10.292-1.388-15.155-4.168-4.866-2.777-7.901-8.351-6.848-12.286z"/><path id="XMLID_152_" d="m255.341 80.865-16.389 58.792h32.779z"/><path id="XMLID_151_" d="m132.672 364.506c2.245-2.996 3.368-6.543 3.368-10.64 0-4.092-1.123-7.678-3.368-10.748-2.245-3.072-5.388-4.608-9.43-4.608h-23.573v30.493h23.574c4.041 0 7.185-1.498 9.429-4.497z"/><path id="XMLID_148_" d="m222.267 269.865h-204.56c-9.779 0-17.707 7.928-17.707 17.708v201.568c0 9.78 7.928 17.707 17.707 17.707h204.56c9.78 0 17.707-7.928 17.707-17.707v-201.568c.001-9.78-7.927-17.708-17.707-17.708zm-47.162 152.007c0 16.379-4.08 28.336-12.236 35.866-8.16 7.534-19.122 11.298-32.891 11.298h-52.253c-8.516 0-12.855-4.452-12.855-10.31v-139.52c0-4.688 2.893-10.529 12.855-10.529h48.437c29.934 0 44.903 13.017 44.903 39.047 0 9.474-1.855 17.181-5.563 23.118-4.203 6.728-3.367 15.272 1.984 21.129.632.692 1.227 1.409 1.783 2.151 3.891 5.193 5.837 12.909 5.837 23.144v4.606z"/><path id="XMLID_147_" d="m122.12 395.328h-22.451v43.874h22.451c11.973 0 17.961-6.725 17.961-20.183v-3.51c0-13.453-5.988-20.181-17.961-20.181z"/><path id="XMLID_138_" d="m494.293 269.865h-206.746c-9.78 0-17.707 7.928-17.707 17.707v201.568c0 9.78 7.928 17.707 17.707 17.707h206.745c9.78 0 17.707-7.928 17.707-17.707v-201.567c.001-9.78-7.927-17.708-17.706-17.708zm-103.036 170.652c16.018 0 18.926-14.469 19.757-21.937.596-6.872 6.36-10.311 17.287-10.311 6.433 0 11.001 1.135 13.695 3.401 2.694 2.269 4.042 6.547 4.042 12.834 0 14.188-5.276 25.374-15.828 33.563-10.552 8.192-24.062 12.286-40.525 12.286-16.018 0-29-4.168-38.953-12.505-9.955-8.336-14.93-21.422-14.93-39.267v-58.133c0-17.841 4.975-30.931 14.93-39.268 9.953-8.336 22.936-12.503 38.953-12.503 16.463 0 29.973 3.876 40.525 11.626 10.552 7.754 15.828 18.427 15.828 32.027 0 6.29-1.347 10.568-4.042 12.834-2.694 2.269-7.184 3.401-13.471 3.401-11.226 0-17.063-3.435-17.512-10.311-.449-13.161-7.111-19.743-19.982-19.743-13.471 0-20.206 7.315-20.206 21.938v58.133c.001 14.624 6.81 21.935 20.432 21.935z"/></g></svg>