<svg height='300px' width='300px'  fill="#000000" xmlns="http://www.w3.org/2000/svg" xmlns:xlink="http://www.w3.org/1999/xlink" version="1.1" x="0px" y="0px" viewBox="0 0 64 64" enable-background="new 0 0 64 64" xml:space="preserve"><g><path d="M51,34c-0.723,0-1.407,0.162-2.029,0.439l-4.32-6.048C45.481,27.499,46,26.312,46,25c0-2.757-2.243-5-5-5   c-0.724,0-1.407,0.162-2.029,0.44l-4.32-6.048C35.481,13.499,36,12.312,36,11c0-2.757-2.243-5-5-5s-5,2.243-5,5   c0,1.312,0.519,2.499,1.349,3.392l-4.32,6.048C22.407,20.162,21.724,20,21,20c-2.757,0-5,2.243-5,5c0,1.313,0.519,2.5,1.351,3.394   L13.03,34.44C12.408,34.162,11.724,34,11,34c-2.757,0-5,2.243-5,5s2.243,5,5,5s5-2.243,5-5c0-1.312-0.519-2.498-1.348-3.391   l4.322-6.047C19.594,29.839,20.277,30,21,30c0.723,0,1.407-0.162,2.028-0.439l4.32,6.048C26.519,36.502,26,37.688,26,39   c0,1.312,0.519,2.499,1.349,3.392l-4.32,6.048C22.407,48.162,21.724,48,21,48c-2.757,0-5,2.243-5,5s2.243,5,5,5s5-2.243,5-5   c0-1.312-0.519-2.499-1.349-3.392l4.32-6.048C29.592,43.838,30.276,44,31,44c0.723,0,1.407-0.162,2.029-0.439l4.319,6.049   C36.518,50.503,36,51.689,36,53c0,2.757,2.243,5,5,5s5-2.243,5-5s-2.243-5-5-5c-0.724,0-1.409,0.162-2.031,0.441l-4.318-6.049   C35.481,41.499,36,40.312,36,39c0-2.757-2.243-5-5-5c-0.724,0-1.408,0.162-2.03,0.44l-4.319-6.048C25.481,27.5,26,26.313,26,25   c0-1.312-0.519-2.499-1.349-3.392l4.32-6.048C29.592,15.838,30.276,16,31,16c0.724,0,1.407-0.162,2.029-0.44l4.32,6.048   C36.519,22.501,36,23.688,36,25c0,2.757,2.243,5,5,5c0.724,0,1.407-0.162,2.029-0.44l4.32,6.047C46.519,36.501,46,37.688,46,39   c0,2.757,2.243,5,5,5s5-2.243,5-5S53.757,34,51,34z M11,42c-1.654,0-3-1.346-3-3s1.346-3,3-3s3,1.346,3,3S12.654,42,11,42z M18,25   c0-1.654,1.346-3,3-3s3,1.346,3,3s-1.346,3-3,3S18,26.654,18,25z M21,56c-1.654,0-3-1.346-3-3s1.346-3,3-3s3,1.346,3,3   S22.654,56,21,56z M44,53c0,1.654-1.346,3-3,3s-3-1.346-3-3s1.346-3,3-3S44,51.346,44,53z M34,39c0,1.654-1.346,3-3,3s-3-1.346-3-3   s1.346-3,3-3S34,37.346,34,39z M28,11c0-1.654,1.346-3,3-3s3,1.346,3,3s-1.346,3-3,3S28,12.654,28,11z M38,25c0-1.654,1.346-3,3-3   s3,1.346,3,3s-1.346,3-3,3S38,26.654,38,25z M51,42c-1.654,0-3-1.346-3-3s1.346-3,3-3s3,1.346,3,3S52.654,42,51,42z"></path></g></svg>
